<?xml version="1.0" encoding="UTF-8" standalone="no"?>
<!DOCTYPE svg PUBLIC "-//W3C//DTD SVG 1.1//EN"
 "http://www.w3.org/Graphics/SVG/1.1/DTD/svg11.dtd">
<!-- Generated by graphviz version 8.0.5 (20230430.1635)
 -->
<!-- Title: workflow Pages: 1 -->
<svg width="1251pt" height="374pt"
 viewBox="0.00 0.00 1251.48 373.99" xmlns="http://www.w3.org/2000/svg" xmlns:xlink="http://www.w3.org/1999/xlink">
<g id="graph0" class="graph" transform="scale(1 1) rotate(0) translate(4 369.99)">
<title>workflow</title>
<polygon fill="white" stroke="none" points="-4,4 -4,-369.99 1247.48,-369.99 1247.48,4 -4,4"/>
<!-- place_7a02e7302286424ed1a4ee65182dbacf3a6ffbbc -->
<g id="node1" class="node">
<title>place_7a02e7302286424ed1a4ee65182dbacf3a6ffbbc</title>
<ellipse fill="lightblue" stroke="#333333" cx="68.62" cy="-52.83" rx="41.77" ry="41.77"/>
<text text-anchor="middle" x="68.62" y="-49.9" font-family="Arial" font-size="9.00">demande_initie</text>
</g>
<!-- place_6be128d41a008bcb8312273b81897d8a4ba2d059 -->
<g id="node2" class="node">
<title>place_6be128d41a008bcb8312273b81897d8a4ba2d059</title>
<ellipse fill="none" stroke="#333333" cx="269.56" cy="-132.83" rx="67.07" ry="67.07"/>
<text text-anchor="middle" x="269.56" y="-129.9" font-family="Arial" font-size="9.00">demande_valider_directeur</text>
</g>
<!-- place_7a02e7302286424ed1a4ee65182dbacf3a6ffbbc&#45;&gt;place_6be128d41a008bcb8312273b81897d8a4ba2d059 -->
<g id="edge1" class="edge">
<title>place_7a02e7302286424ed1a4ee65182dbacf3a6ffbbc&#45;&gt;place_6be128d41a008bcb8312273b81897d8a4ba2d059</title>
<path fill="none" stroke="#333333" d="M107.51,-68.07C134.05,-78.74 170.22,-93.28 201.57,-105.89"/>
<polygon fill="#333333" stroke="#333333" points="200.66,-107.81 205.95,-108.06 201.97,-104.57 200.66,-107.81"/>
<text text-anchor="middle" x="169.87" y="-100.53" font-family="Arial" font-size="9.00">passer</text>
</g>
<!-- place_01ea9f46cbb129dbc91853daf50bf96e8c9bd0b2 -->
<g id="node8" class="node">
<title>place_01ea9f46cbb129dbc91853daf50bf96e8c9bd0b2</title>
<ellipse fill="none" stroke="#333333" cx="635.79" cy="-46.83" rx="46.83" ry="46.83"/>
<text text-anchor="middle" x="635.79" y="-43.9" font-family="Arial" font-size="9.00">demande_refuser</text>
</g>
<!-- place_7a02e7302286424ed1a4ee65182dbacf3a6ffbbc&#45;&gt;place_01ea9f46cbb129dbc91853daf50bf96e8c9bd0b2 -->
<g id="edge2" class="edge">
<title>place_7a02e7302286424ed1a4ee65182dbacf3a6ffbbc&#45;&gt;place_01ea9f46cbb129dbc91853daf50bf96e8c9bd0b2</title>
<path fill="none" stroke="#333333" d="M110.6,-50.02C136.86,-48.36 171.67,-46.42 202.5,-45.58 339.87,-41.83 501.89,-44.09 583.02,-45.67"/>
<polygon fill="#333333" stroke="#333333" points="582.68,-47.44 587.72,-45.79 582.75,-43.94 582.68,-47.44"/>
<text text-anchor="middle" x="269.56" y="-48.53" font-family="Arial" font-size="9.00">demande_refuser</text>
</g>
<!-- place_7fbb0688201be2ce968e6802e3050c5d11e946b4 -->
<g id="node4" class="node">
<title>place_7fbb0688201be2ce968e6802e3050c5d11e946b4</title>
<ellipse fill="none" stroke="#333333" cx="635.79" cy="-241.83" rx="86.91" ry="86.91"/>
<text text-anchor="middle" x="635.79" y="-238.9" font-family="Arial" font-size="9.00">demande_valider_attente_document</text>
</g>
<!-- place_6be128d41a008bcb8312273b81897d8a4ba2d059&#45;&gt;place_7fbb0688201be2ce968e6802e3050c5d11e946b4 -->
<g id="edge4" class="edge">
<title>place_6be128d41a008bcb8312273b81897d8a4ba2d059&#45;&gt;place_7fbb0688201be2ce968e6802e3050c5d11e946b4</title>
<path fill="none" stroke="#333333" d="M334.01,-151.82C392.89,-169.44 481.08,-195.83 546.76,-215.48"/>
<polygon fill="#333333" stroke="#333333" points="545.95,-217.37 551.24,-217.13 546.95,-214.02 545.95,-217.37"/>
<text text-anchor="middle" x="442.75" y="-211.53" font-family="Arial" font-size="9.00">accepatation_president_attente_document</text>
</g>
<!-- place_fb807d9aff8ba54f7c6ed8cb7c5bd8123bb498f2 -->
<g id="node5" class="node">
<title>place_fb807d9aff8ba54f7c6ed8cb7c5bd8123bb498f2</title>
<ellipse fill="none" stroke="#333333" cx="1197.82" cy="-142.83" rx="45.66" ry="45.66"/>
<text text-anchor="middle" x="1197.82" y="-139.9" font-family="Arial" font-size="9.00">demande_valider</text>
</g>
<!-- place_6be128d41a008bcb8312273b81897d8a4ba2d059&#45;&gt;place_fb807d9aff8ba54f7c6ed8cb7c5bd8123bb498f2 -->
<g id="edge3" class="edge">
<title>place_6be128d41a008bcb8312273b81897d8a4ba2d059&#45;&gt;place_fb807d9aff8ba54f7c6ed8cb7c5bd8123bb498f2</title>
<path fill="none" stroke="#333333" d="M336.8,-133.54C512.69,-135.44 988.71,-140.58 1145.77,-142.28"/>
<polygon fill="#333333" stroke="#333333" points="1145.65,-144.04 1150.67,-142.34 1145.69,-140.54 1145.65,-144.04"/>
<text text-anchor="middle" x="801.46" y="-142.53" font-family="Arial" font-size="9.00">accepatation_president</text>
</g>
<!-- place_6be128d41a008bcb8312273b81897d8a4ba2d059&#45;&gt;place_01ea9f46cbb129dbc91853daf50bf96e8c9bd0b2 -->
<g id="edge5" class="edge">
<title>place_6be128d41a008bcb8312273b81897d8a4ba2d059&#45;&gt;place_01ea9f46cbb129dbc91853daf50bf96e8c9bd0b2</title>
<path fill="none" stroke="#333333" d="M332.16,-108.63C339.67,-106.07 347.29,-103.65 354.63,-101.58 433.27,-79.44 526.79,-63.11 583.43,-54.29"/>
<polygon fill="#333333" stroke="#333333" points="583.46,-55.9 588.13,-53.41 582.92,-52.44 583.46,-55.9"/>
<text text-anchor="middle" x="442.75" y="-104.53" font-family="Arial" font-size="9.00">demande_refuser_president</text>
</g>
<!-- place_07a5288202c6a1336fc3550ffe133550e3c662e5 -->
<g id="node3" class="node">
<title>place_07a5288202c6a1336fc3550ffe133550e3c662e5</title>
<ellipse fill="none" stroke="#333333" cx="68.62" cy="-180.83" rx="68.62" ry="68.62"/>
<text text-anchor="middle" x="68.62" y="-177.9" font-family="Arial" font-size="9.00">demande_valider_president</text>
</g>
<!-- place_f5673be4bc1485900dd7187db0bbee29e47d4d30 -->
<g id="node6" class="node">
<title>place_f5673be4bc1485900dd7187db0bbee29e47d4d30</title>
<ellipse fill="none" stroke="#333333" cx="934.43" cy="-208.83" rx="54.22" ry="54.22"/>
<text text-anchor="middle" x="934.43" y="-205.9" font-family="Arial" font-size="9.00">document_enregistre</text>
</g>
<!-- place_7fbb0688201be2ce968e6802e3050c5d11e946b4&#45;&gt;place_f5673be4bc1485900dd7187db0bbee29e47d4d30 -->
<g id="edge6" class="edge">
<title>place_7fbb0688201be2ce968e6802e3050c5d11e946b4&#45;&gt;place_f5673be4bc1485900dd7187db0bbee29e47d4d30</title>
<path fill="none" stroke="#333333" d="M722.82,-234.57C764.9,-230.73 816.27,-225.61 862.21,-219.83 866.3,-219.31 870.53,-218.75 874.78,-218.15"/>
<polygon fill="#333333" stroke="#333333" points="874.88,-219.77 879.58,-217.33 874.38,-216.3 874.88,-219.77"/>
<text text-anchor="middle" x="801.46" y="-234.53" font-family="Arial" font-size="9.00">document_enregister</text>
</g>
<!-- place_f5673be4bc1485900dd7187db0bbee29e47d4d30&#45;&gt;place_7fbb0688201be2ce968e6802e3050c5d11e946b4 -->
<g id="edge8" class="edge">
<title>place_f5673be4bc1485900dd7187db0bbee29e47d4d30&#45;&gt;place_7fbb0688201be2ce968e6802e3050c5d11e946b4</title>
<path fill="none" stroke="#333333" d="M879.77,-206.95C873.84,-206.8 867.9,-206.67 862.21,-206.58 808.21,-205.73 793.99,-197.79 740.71,-206.58 735,-207.52 729.18,-208.74 723.36,-210.15"/>
<polygon fill="#333333" stroke="#333333" points="722.96,-208.69 718.54,-211.62 723.82,-212.09 722.96,-208.69"/>
<text text-anchor="middle" x="801.46" y="-208.53" font-family="Arial" font-size="9.00">document_verification_refuse</text>
</g>
<!-- place_f5673be4bc1485900dd7187db0bbee29e47d4d30&#45;&gt;place_fb807d9aff8ba54f7c6ed8cb7c5bd8123bb498f2 -->
<g id="edge7" class="edge">
<title>place_f5673be4bc1485900dd7187db0bbee29e47d4d30&#45;&gt;place_fb807d9aff8ba54f7c6ed8cb7c5bd8123bb498f2</title>
<path fill="none" stroke="#333333" d="M987.39,-195.71C1033.93,-183.96 1101.72,-166.84 1147.45,-155.29"/>
<polygon fill="#333333" stroke="#333333" points="1147.78,-156.76 1152.2,-153.84 1146.92,-153.37 1147.78,-156.76"/>
<text text-anchor="middle" x="1070.41" y="-191.53" font-family="Arial" font-size="9.00">document_verification_accepte</text>
</g>
<!-- place_28f9565613e9ac0b0d92df22e739f9d21a055629 -->
<g id="node7" class="node">
<title>place_28f9565613e9ac0b0d92df22e739f9d21a055629</title>
<ellipse fill="none" stroke="#333333" cx="68.62" cy="-316.83" rx="49.16" ry="49.16"/>
<text text-anchor="middle" x="68.62" y="-313.9" font-family="Arial" font-size="9.00">document_accepte</text>
</g>
</g>
</svg>
